<?xml version="1.0" encoding="UTF-8" standalone="no"?>
<svg
   xmlns:dc="http://purl.org/dc/elements/1.1/"
   xmlns:cc="http://creativecommons.org/ns#"
   xmlns:rdf="http://www.w3.org/1999/02/22-rdf-syntax-ns#"
   xmlns:svg="http://www.w3.org/2000/svg"
   xmlns="http://www.w3.org/2000/svg"
   xmlns:sodipodi="http://sodipodi.sourceforge.net/DTD/sodipodi-0.dtd"
   xmlns:inkscape="http://www.inkscape.org/namespaces/inkscape"
   width="8000mm"
   height="8000mm"
   viewBox="0 0 8000 8000"
   id="svg2"
   version="1.1"
   inkscape:version="0.91 r13725"
   sodipodi:docname="connect.svg">
  <metadata
     id="metadata14">
    <rdf:RDF>
      <cc:Work
         rdf:about="">
        <dc:format>image/svg+xml</dc:format>
        <dc:type
           rdf:resource="http://purl.org/dc/dcmitype/StillImage" />
        <dc:title>Bezier Curve : BezierCurve.006</dc:title>
      </cc:Work>
    </rdf:RDF>
  </metadata>
  <defs
     id="defs12" />
  <sodipodi:namedview
     pagecolor="#ffffff"
     bordercolor="#666666"
     borderopacity="1"
     objecttolerance="10"
     gridtolerance="10"
     guidetolerance="10"
     inkscape:pageopacity="0"
     inkscape:pageshadow="2"
     inkscape:window-width="1846"
     inkscape:window-height="1057"
     id="namedview10"
     showgrid="false"
     units="mm"
     inkscape:zoom="0.061881534"
     inkscape:cx="-49.078745"
     inkscape:cy="1197.3224"
     inkscape:window-x="-8"
     inkscape:window-y="-8"
     inkscape:window-maximized="1"
     inkscape:current-layer="svg2" />
  <title
     id="title4">Bezier Curve : BezierCurve.006</title>
  <desc
     id="desc6">This is an exported Bezier xml_path from Blender, using the ExportScript by maybites.ch and Craxic</desc>
  <path
     style="fill:none;stroke:#000000;stroke-width:1px;stroke-linecap:butt;stroke-linejoin:miter;stroke-opacity:1"
     d="m 8,15000 c 0,0 4000,-4000 4000,-4000 0,0 -1000,-1000 -1000,-1000 0,0 2000,-2000 2000,-2000 0,0 3000,3000 3000,3000 0,0 -2000,2000 -2000,2000 0,0 -1000,-1000 -1000,-1000 0,0 -4000,4000 -4000,4000 0,0 -1000,-1000 -1000,-1000 z"
     id="path8"
     inkscape:connector-curvature="0" />
  <path
     id="path3363"
     d="M 0.353,7499.735 1999.9999,5500.0884 1500.0884,5000.1767 2499.9116,4000.3535 3999.6465,5500.0884 2999.8234,6499.9116 2499.9116,6000 500.265,7999.646 Z"
     style="fill:#000000;stroke:#000000;stroke-width:0.49990636px;stroke-linecap:butt;stroke-linejoin:miter;stroke-opacity:1"
     inkscape:connector-curvature="0"
     sodipodi:nodetypes="ccccccccc" />
  <path
     id="path3378"
     d="m 2775.3533,4309.8235 c 0,0 749.47,-749.4699 749.47,-749.4699 0,0 249.8233,249.8232 249.8233,249.8232 0,0 -749.47,749.4699 -749.47,749.4699 0,0 -249.8233,-249.8232 -249.8233,-249.8232 z"
     style="fill:#000000;stroke:#000000;stroke-width:0.49964666px;stroke-linecap:butt;stroke-linejoin:miter;stroke-opacity:1"
     inkscape:connector-curvature="0" />
  <path
     id="path3363-4"
     d="M 7999.646,500.265 6000,2499.9115 l 499.9117,499.9112 -999.8233,999.8238 -1499.7349,-1499.735 999.8231,-999.8226 499.9118,499.9112 L 7499.735,0.354 Z"
     style="fill:#000000;stroke:#000000;stroke-width:0.49988872px;stroke-linecap:butt;stroke-linejoin:miter;stroke-opacity:1"
     inkscape:connector-curvature="0"
     sodipodi:nodetypes="ccccccccc" />
  <path
     id="path3378-5"
     d="m 3440.3533,4974.8236 c 0,0 749.47,-749.47 749.47,-749.47 0,0 249.8233,249.8232 249.8233,249.8232 0,0 -749.47,749.4699 -749.47,749.4699 0,0 -249.8233,-249.8231 -249.8233,-249.8231 z"
     style="fill:#000000;stroke:#000000;stroke-width:0.49964669px;stroke-linecap:butt;stroke-linejoin:miter;stroke-opacity:1"
     inkscape:connector-curvature="0" />
</svg>
